<svg xmlns="http://www.w3.org/2000/svg" width="50.09" height="55" viewBox="0 0 50.09 55">
  <g id="Group_31" data-name="Group 31" transform="translate(-136.76 -1067.5)">
    <path id="Path_121" data-name="Path 121" d="M186.241,1080.489l-22.506-12.783a1.222,1.222,0,0,0-1.3-.033l-22.9,12.846a1.212,1.212,0,0,0-.556.931c0,.021,0,.042,0,.063h-.006v9.668a3.2,3.2,0,1,0,1.964,0v-7.959l5.384,2.667v13.36a1.237,1.237,0,0,0,.949,1.2,66,66,0,0,0,31.281,0,1.236,1.236,0,0,0,.95-1.2V1086.11l6.74-3.521.2-.138a1.208,1.208,0,0,0,.406-1A1.243,1.243,0,0,0,186.241,1080.489Zm-46.286,14.841a1.177,1.177,0,1,1,1.231-1.175A1.205,1.205,0,0,1,139.955,1095.33Zm37.581,3.344a64.04,64.04,0,0,1-29.251,0v-11.812l14.585,7.226a1.256,1.256,0,0,0,1.372-.008l13.294-6.944Zm-13.994-6.445-21.74-10.734,21.249-11.921,21.013,11.936Z" fill="#f88508"/>
    <g id="Group_30" data-name="Group 30">
      <path id="Path_122" data-name="Path 122" d="M181.243,1104.043H142.366c-2.037,0-2.948,3.514-2.948,7s.911,7,2.948,7h0v.005h14.224l-.724,1.792a1.114,1.114,0,0,0,1.357,1.466l1.168-.352.627,1.067a1.117,1.117,0,0,0,1.958-.212l.705-1.734.707,1.739a1.12,1.12,0,0,0,.922.688,1.081,1.081,0,0,0,.114.006,1.143,1.143,0,0,0,.953-.539l.6-1.014,1.2.36a1.131,1.131,0,0,0,1.144-.36,1.084,1.084,0,0,0,.17-1.14l-.718-1.767h14.475v-.005c2.033-.006,2.943-3.516,2.943-7S183.279,1104.043,181.243,1104.043Zm-14.8,5.675a5.178,5.178,0,0,0-9.512,0,22.868,22.868,0,0,1-9.171-3.711h27.862A22.871,22.871,0,0,1,166.442,1109.718Zm-6.819,4.261a3.076,3.076,0,0,1-1.121-2.348,3.21,3.21,0,0,1,.062-.6,3.184,3.184,0,0,1,6.305.6,3.028,3.028,0,0,1-1.13,2.347A3.309,3.309,0,0,1,159.623,1113.979Zm-18.241-2.94c0-2.763.617-4.449.984-4.933.367.484.984,2.17.984,4.933s-.617,4.449-.984,4.934C142,1115.488,141.382,1113.8,141.382,1111.039Zm3.127,5.036a16.152,16.152,0,0,0,0-10.068h.032a24.8,24.8,0,0,0,12,5.636,5,5,0,0,0,1.3,3.324l-.448,1.108Zm15.3,3.4-.127-.2a1.118,1.118,0,0,0-1.218-.4l-.1.029,1.106-2.74a5.2,5.2,0,0,0,1.516.451l-.166.4a.968.968,0,0,0-.057.137Zm5.125-.591a1.1,1.1,0,0,0-1.293.484l-.07.117-.82-2.017.432-1.023a5.3,5.3,0,0,0,.714-.274l1.112,2.737Zm.6-3.908a4.959,4.959,0,0,0,1.3-3.33,24.793,24.793,0,0,0,12.007-5.636h.26a16.152,16.152,0,0,0,0,10.068H165.976Zm15.715,1c-.367-.485-.984-2.17-.984-4.934s.617-4.449.984-4.933c.367.484.984,2.17.984,4.933S181.61,1115.488,181.243,1115.973Z" fill="#f88508"/>
    </g>
  </g>
</svg>
