<svg xmlns="http://www.w3.org/2000/svg" width="58.113" height="55" viewBox="0 0 58.113 55">
  <g id="Group_34" data-name="Group 34" transform="translate(-606.535 -1067.5)">
    <path id="Path_123" data-name="Path 123" d="M663.4,1067.5H607.781a1.247,1.247,0,0,0-1.246,1.245v39.246a1.247,1.247,0,0,0,1.246,1.245H630.1v5.918h-4.791a1.246,1.246,0,0,0-1.245,1.245v4.856a1.246,1.246,0,0,0,1.245,1.245h20.555a1.247,1.247,0,0,0,1.246-1.245V1116.4a1.247,1.247,0,0,0-1.246-1.245h-4.79v-5.918H663.4a1.246,1.246,0,0,0,1.245-1.245v-39.246A1.246,1.246,0,0,0,663.4,1067.5Zm-18.364,52.925h-18.9v-3.2h18.9ZM639,1115.154H632.18v-5.918H639Zm23.57-7.993H608.611v-37.586h53.962Z" fill="#eb5757"/>
    <path id="Path_124" data-name="Path 124" d="M611.393,1105.767h48.4a1.247,1.247,0,0,0,1.246-1.246v-32.306a1.247,1.247,0,0,0-1.246-1.245h-48.4a1.247,1.247,0,0,0-1.246,1.245v32.306A1.247,1.247,0,0,0,611.393,1105.767Zm.83-32.722H658.96v30.646H612.223Z" fill="#eb5757"/>
    <path id="Path_125" data-name="Path 125" d="M653.859,1074.723H618.288a1.183,1.183,0,0,0-1.182,1.18v19.657a1.038,1.038,0,1,0,2.075,0V1076.8h33.785v19.686H641.842a1.172,1.172,0,0,0-1.044.627l-1.16,2.989H623.473a1.038,1.038,0,0,0,0,2.075h16.666a1.134,1.134,0,0,0,.2.036,1.054,1.054,0,0,0,.243-.036h13.282a1.184,1.184,0,0,0,1.183-1.181V1075.9A1.183,1.183,0,0,0,653.859,1074.723Zm-12,25.377.595-1.541h10.509v1.541Z" fill="#eb5757"/>
    <path id="Path_126" data-name="Path 126" d="M643.641,1094.85a1.158,1.158,0,0,0,.877-1.122v-5.869l2.891-1.505.207-.142a1.155,1.155,0,0,0,.385-.954l-.1-.633-11.133-6.306a1.152,1.152,0,0,0-1.2-.032l-10.887,6.091a1.155,1.155,0,0,0-.534.88l0,.609.39.345,3.1,1.536v5.98a1.163,1.163,0,0,0,.886,1.125,32,32,0,0,0,15.125,0Zm-7.5-14.506,8.775,4.97-8.547,4.451-9.078-4.469ZM629.705,1093v-4.221l6.071,3.011a1.167,1.167,0,0,0,.6.167,1.155,1.155,0,0,0,.616-.178l5.449-2.838V1093A29.91,29.91,0,0,1,629.705,1093Z" fill="#eb5757"/>
    <path id="Path_127" data-name="Path 127" d="M626.454,1095.032a1.037,1.037,0,0,0-1.438-.292l-8.41,5.568a1.038,1.038,0,0,0,1.147,1.731l8.409-5.569A1.038,1.038,0,0,0,626.454,1095.032Z" fill="#eb5757"/>
    <path id="Path_128" data-name="Path 128" d="M620.816,1091.72a1.037,1.037,0,0,0,.657,1.312l1.982.659a1.071,1.071,0,0,0,.327.052,1.038,1.038,0,0,0,.328-2.022l-1.983-.659A1.038,1.038,0,0,0,620.816,1091.72Z" fill="#eb5757"/>
    <path id="Path_129" data-name="Path 129" d="M622.566,1087.187a1.037,1.037,0,0,0-.089,1.464l1.927,2.174a1.037,1.037,0,0,0,1.553-1.376l-1.926-2.174A1.035,1.035,0,0,0,622.566,1087.187Z" fill="#eb5757"/>
    <path id="Path_130" data-name="Path 130" d="M628.064,1096.389a1.038,1.038,0,0,0,.141,1.461l1.045.861a1.038,1.038,0,0,0,1.32-1.6l-1.046-.862A1.039,1.039,0,0,0,628.064,1096.389Z" fill="#eb5757"/>
  </g>
</svg>
