<svg xmlns="http://www.w3.org/2000/svg" width="59.03" height="55" viewBox="0 0 59.03 55">
  <path id="Path_131" data-name="Path 131" d="M1129.005,1111.376l-2.241-10.141a12.342,12.342,0,0,0,1.12-5.249,12.677,12.677,0,0,0-5.307-10.318v-1.121a4,4,0,0,0-3.952-4.009h-5.541a4.188,4.188,0,0,0-2.239.707v2.005h-11.737c1.24-3.066,7.431-2.478,10.084-2.949a17.4,17.4,0,0,0,6.664-2.771c3.715-2.535,4.953-6.839,4.363-11.087-.177-1.472-2.535-1.472-2.3,0,1.119,8.611-6.133,11.44-13.385,12.148-3.776.413-7.2.944-7.845,4.659h-6.956a3.952,3.952,0,0,0-3.775-2.712h-5.483a4.052,4.052,0,0,0-4.01,4.009v.471a12.671,12.671,0,0,0-6.251,10.968,12.911,12.911,0,0,0,1.828,6.545l-1.651,7.311a8.669,8.669,0,0,0,6.191,10.26,8.595,8.595,0,0,0,10.38-6.427l1.355-6.131a12.843,12.843,0,0,0,4.836-4.01h11.794a12.2,12.2,0,0,0,5.9,4.423l1.236,5.718a8.568,8.568,0,0,0,8.315,6.664h0a8.482,8.482,0,0,0,1.71-.177,6.968,6.968,0,0,0,5.6-2.595,7.1,7.1,0,0,0,1.3-6.191Zm-21.17-15.154v-1.593a1.573,1.573,0,0,1,1.593-1.53h4.717v-4.719a1.575,1.575,0,0,1,1.534-1.591h1.591a1.585,1.585,0,0,1,1.592,1.591v4.719h4.659a1.571,1.571,0,0,1,1.591,1.53v1.593a1.536,1.536,0,0,1-1.591,1.534h-4.659v4.717a1.584,1.584,0,0,1-1.592,1.591h-1.591a1.575,1.575,0,0,1-1.534-1.591v-4.717h-4.717a1.538,1.538,0,0,1-1.593-1.534Zm-30.779,2.063a2.476,2.476,0,1,1,2.476-2.476,2.505,2.505,0,0,1-2.476,2.476Zm5.073,5.132a2.507,2.507,0,1,1,2.475-2.537,2.508,2.508,0,0,1-2.475,2.537Zm0-10.26a2.477,2.477,0,1,1,2.475-2.478,2.495,2.495,0,0,1-2.475,2.478Zm5.128,5.128a2.476,2.476,0,1,1,2.477-2.476,2.491,2.491,0,0,1-2.477,2.476Z" transform="translate(-1070.188 -1065.339)" fill="#17a6dd" fill-rule="evenodd"/>
</svg>
