<svg xmlns="http://www.w3.org/2000/svg" width="50.095" height="55" viewBox="0 0 50.095 55">
  <g id="Group_37" data-name="Group 37" transform="translate(-1470.544 -1067.5)">
    <path id="Path_132" data-name="Path 132" d="M1495.592,1122.5a25.076,25.076,0,0,1-25.048-25.047.912.912,0,0,1,.912-.912h48.271a.912.912,0,0,1,.912.912A25.075,25.075,0,0,1,1495.592,1122.5Zm-23.206-24.136a23.224,23.224,0,0,0,46.412,0Z" fill="#46cb5c"/>
    <path id="Path_133" data-name="Path 133" d="M1495.592,1110.638c-14.046,0-25.048-5.792-25.048-13.185a.912.912,0,0,1,.912-.912h48.271a.912.912,0,0,1,.912.912C1520.639,1104.846,1509.637,1110.638,1495.592,1110.638Zm-23.146-12.274c.985,5.752,11.184,10.451,23.146,10.451s22.161-4.7,23.145-10.451Z" fill="#46cb5c"/>
    <path id="Path_134" data-name="Path 134" d="M1495.592,1122.5a.912.912,0,0,1-.912-.912v-24.135a.912.912,0,1,1,1.824,0v24.135A.912.912,0,0,1,1495.592,1122.5Z" fill="#46cb5c"/>
    <path id="Path_135" data-name="Path 135" d="M1495.6,1095.663c-.122,0-.245,0-.368-.007a10.2,10.2,0,0,1-9.636-10.211V1077.5a10,10,0,1,1,20,0v8.163a10,10,0,0,1-9.995,10Zm0-26.34a8.187,8.187,0,0,0-8.177,8.177v7.945a8.358,8.358,0,0,0,7.877,8.389,8.176,8.176,0,0,0,8.476-8.171V1077.5A8.186,8.186,0,0,0,1495.592,1069.323Z" fill="#46cb5c"/>
    <path id="Path_136" data-name="Path 136" d="M1498.106,1077.369a8.666,8.666,0,0,1-3.731-.856c-4.492-2.117-7.018-.971-7.042-.96a.917.917,0,0,1-1.214-.421.907.907,0,0,1,.4-1.212c.131-.066,3.265-1.585,8.63.944,4.392,2.071,8.108-1.263,8.263-1.405a.912.912,0,0,1,1.237,1.34A10.477,10.477,0,0,1,1498.106,1077.369Z" fill="#46cb5c"/>
    <path id="Path_137" data-name="Path 137" d="M1504.938,1084.379a2.339,2.339,0,0,1-.426-.042.912.912,0,0,1-.744-.9l-.011-6.162a.912.912,0,0,1,.73-.914,2.337,2.337,0,0,1,.451-.048c1.667,0,2.973,1.771,2.973,4.031S1506.6,1084.379,1504.938,1084.379Zm.653-5.792v3.5a2.99,2.99,0,0,0,.5-1.736A3.111,3.111,0,0,0,1505.591,1078.587Z" fill="#46cb5c"/>
    <path id="Path_138" data-name="Path 138" d="M1486.245,1084.379c-1.666,0-2.972-1.77-2.972-4.031s1.306-4.031,2.972-4.031a2.33,2.33,0,0,1,.451.048.912.912,0,0,1,.731.914l-.008.15,0,6.012a.911.911,0,0,1-.743.9A2.349,2.349,0,0,1,1486.245,1084.379Zm-.653-5.792a3.38,3.38,0,0,0,0,3.522Z" fill="#46cb5c"/>
    <path id="Path_139" data-name="Path 139" d="M1512.9,1098.365a.912.912,0,0,1-.368-1.747,7,7,0,0,0,4.18-6.406v-7.1a7,7,0,0,0-6.994-7,7.119,7.119,0,0,0-1.324.125.911.911,0,1,1-.344-1.79,8.824,8.824,0,0,1,10.486,8.661v7.1a8.827,8.827,0,0,1-5.27,8.076A.918.918,0,0,1,1512.9,1098.365Z" fill="#46cb5c"/>
    <path id="Path_140" data-name="Path 140" d="M1506.567,1098.365a.919.919,0,0,1-.37-.079,8.9,8.9,0,0,1-3.528-2.857.912.912,0,1,1,1.469-1.08,7.087,7.087,0,0,0,2.8,2.272.912.912,0,0,1-.373,1.744Z" fill="#46cb5c"/>
    <path id="Path_141" data-name="Path 141" d="M1511.9,1083.113a7.613,7.613,0,0,1-2.984-.615.912.912,0,0,1,.709-1.68c3.664,1.548,6.781-1.28,6.813-1.309a.911.911,0,1,1,1.238,1.338A9.224,9.224,0,0,1,1511.9,1083.113Z" fill="#46cb5c"/>
    <path id="Path_142" data-name="Path 142" d="M1517.845,1089.214a2.112,2.112,0,0,1-.4-.04.912.912,0,0,1-.739-.895l-.01-5.355a.914.914,0,0,1,.735-.918,2.156,2.156,0,0,1,.412-.043c1.516,0,2.7,1.592,2.7,3.625S1519.361,1089.214,1517.845,1089.214Zm.687-4.692v2.125a2.814,2.814,0,0,0,.194-1.059A2.9,2.9,0,0,0,1518.532,1084.522Z" fill="#46cb5c"/>
    <path id="Path_143" data-name="Path 143" d="M1495.592,1122.5c-7.394,0-13.186-11-13.186-25.047a.912.912,0,0,1,.912-.912h24.547a.912.912,0,0,1,.912.912C1508.777,1111.5,1502.985,1122.5,1495.592,1122.5Zm-11.353-24.136c.244,12.187,5.343,22.313,11.353,22.313s11.109-10.126,11.353-22.313Z" fill="#46cb5c"/>
    <path id="Path_144" data-name="Path 144" d="M1478.288,1098.365a.915.915,0,0,1-.366-.077,8.826,8.826,0,0,1-5.27-8.076v-7.1a8.824,8.824,0,0,1,10.486-8.661.911.911,0,1,1-.344,1.79,7.127,7.127,0,0,0-1.324-.125,7,7,0,0,0-6.995,7v7.1a7,7,0,0,0,4.18,6.406.912.912,0,0,1-.367,1.747Z" fill="#46cb5c"/>
    <path id="Path_145" data-name="Path 145" d="M1479.284,1083.113a9.229,9.229,0,0,1-5.777-2.266.911.911,0,0,1,1.238-1.338c.126.116,3.175,2.847,6.814,1.309a.912.912,0,1,1,.708,1.68A7.612,7.612,0,0,1,1479.284,1083.113Z" fill="#46cb5c"/>
    <path id="Path_146" data-name="Path 146" d="M1473.338,1089.214c-1.516,0-2.7-1.592-2.7-3.626s1.188-3.625,2.7-3.625a2.163,2.163,0,0,1,.411.043.911.911,0,0,1,.736.929c0,.009-.005.1-.006.113l0,5.231a.912.912,0,0,1-.739.895A2.1,2.1,0,0,1,1473.338,1089.214Zm-.686-4.692a3.029,3.029,0,0,0,0,2.133Z" fill="#46cb5c"/>
    <path id="Path_147" data-name="Path 147" d="M1499.789,1098.364h-7.913a.911.911,0,0,1-.912-.911v-3.517a.911.911,0,0,1,1.3-.827,7.848,7.848,0,0,0,3.034.725,8.119,8.119,0,0,0,4.074-.919.911.911,0,0,1,1.334.808v3.73A.911.911,0,0,1,1499.789,1098.364Zm-7-1.823h6.09v-1.434a10.173,10.173,0,0,1-3.65.55,9.694,9.694,0,0,1-2.44-.4Z" fill="#46cb5c"/>
  </g>
</svg>
