<svg width="1043" height="182" viewBox="0 0 1043 182" fill="none" xmlns="http://www.w3.org/2000/svg">
<path d="M934.031 98.2784C896.497 79.6357 850.925 73.4024 817.022 81.6557C777.561 91.2651 741.017 110.306 702.07 121.826C617.927 146.716 525.189 134.744 445.726 97.5264C380.086 66.7837 321.066 19.0997 250.034 4.6664C180.741 -9.4136 105.174 12.1011 53.6885 60.5691C24.2525 88.2797 2.11516 125.89 0.937827 166.3C-0.61284 219.612 35.4072 269.192 82.1698 294.838C128.933 320.485 184.559 325.345 237.705 320.852C355.426 310.897 467.039 258.27 585.098 253.825C677.618 250.342 768.746 276.693 861.254 280.464C891.338 281.689 922.423 280.316 949.866 267.93C977.31 255.544 1000.52 230.057 1002.66 200.021C1005.97 153.288 974.725 118.49 934.031 98.2784Z" fill="#D1EBEC"/>
<path d="M973.858 118.192C936.325 99.5498 890.753 93.3152 856.85 101.57C817.387 111.179 780.845 130.221 741.898 141.741C657.754 166.63 565.017 154.658 485.553 117.441C419.914 86.6978 360.893 39.0138 289.862 24.5805C220.567 10.5005 145.001 32.0152 93.5153 80.4832C64.0806 108.193 41.942 145.805 40.766 186.214C39.214 239.525 75.2353 289.106 121.997 314.751C168.761 340.398 224.387 345.258 277.531 340.764C395.254 330.811 506.867 278.184 624.926 273.739C717.446 270.256 808.573 296.607 901.082 300.376C931.166 301.603 962.25 300.23 989.694 287.843C1017.14 275.458 1040.35 249.971 1042.48 219.934C1045.8 173.202 1014.55 138.404 973.858 118.192Z" fill="#FF9800"/>
</svg>
