<svg width="385" height="129" viewBox="0 0 385 129" fill="none" xmlns="http://www.w3.org/2000/svg">
<path d="M322.133 66.1704C322.133 61.1251 322.133 56.0811 322.133 51.0357C322.134 50.5317 322.13 50.0264 322.157 49.5224C322.281 47.0637 323.752 45.3597 326.161 44.8851C327.241 44.6717 328.305 44.7624 329.336 45.1491C331.125 45.8197 332.014 47.2077 332.333 49.0157C332.462 49.7437 332.497 50.4824 332.496 51.2251C332.488 56.1357 332.492 61.0464 332.492 65.9557C332.492 66.1917 332.48 66.4277 332.494 66.6624C332.513 66.9557 332.364 67.377 332.636 67.5064C333 67.681 333.19 67.2344 333.418 67.0211C336.037 64.5544 338.645 62.0757 341.261 59.6051C341.553 59.3291 341.869 59.0731 342.193 58.8357C343.67 57.7517 345.308 57.6064 346.99 58.1731C349.057 58.8704 350.342 61.1424 350.048 63.421C349.84 65.0344 349.125 66.3517 347.797 67.3224C346.276 68.4344 344.764 69.5557 343.25 70.6784C342.313 71.3744 342.324 71.3744 343.133 72.2744C345.022 74.373 346.91 76.4744 348.788 78.585C350.242 80.2197 350.682 82.1144 350.12 84.2184C349.546 86.365 347.758 87.4664 345.958 87.6624C344.176 87.857 342.633 87.3317 341.397 86.0064C341.008 85.589 340.636 85.153 340.292 84.6984C338.708 82.6077 337.126 80.5144 335.564 78.4077C334.806 77.3877 334.741 77.5344 333.936 78.1984C333.598 78.4757 333.257 78.7504 332.914 79.021C332.63 79.2464 332.501 79.541 332.5 79.8984C332.498 80.5037 332.501 81.1104 332.489 81.7144C332.473 82.557 332.402 83.3944 332.165 84.2077C331.558 86.2917 329.894 87.5917 327.72 87.6797C327.184 87.7024 326.644 87.7144 326.11 87.6104C323.877 87.173 322.365 85.4984 322.173 83.221C322.128 82.685 322.134 82.145 322.134 81.6077C322.133 76.461 322.133 71.3157 322.133 66.1704Z" fill="black"/>
<path d="M373.66 72.7492C373.733 71.4066 373.374 70.0972 372.51 68.9506C371.68 67.8466 370.562 67.2079 369.185 67.0772C368.62 67.0239 368.038 67.0159 367.473 67.0786C365.869 67.2546 364.64 68.0372 363.808 69.4426C363.033 70.7492 362.912 72.1692 363.021 73.6359C363.11 74.8492 363.549 75.9332 364.332 76.8532C365.148 77.8132 366.205 78.3812 367.468 78.4946C368.002 78.5426 368.546 78.5452 369.08 78.5026C370.538 78.3879 371.713 77.7252 372.566 76.5412C373.358 75.4399 373.709 74.1932 373.66 72.7492ZM352.382 73.0319C352.378 70.2292 352.856 67.8119 354.001 65.5426C355.652 62.2679 358.228 60.0132 361.621 58.6959C364.594 57.5412 367.677 57.2506 370.84 57.6532C372.453 57.8572 374.013 58.2386 375.498 58.8906C380.236 60.9692 383.068 64.5906 383.996 69.6506C384.537 72.6026 384.384 75.5492 383.346 78.4012C381.952 82.2386 379.361 84.9866 375.634 86.6172C372.581 87.9546 369.372 88.3292 366.061 87.9359C364.516 87.7519 363.009 87.4372 361.569 86.8492C356.632 84.8332 353.698 81.1732 352.642 75.9652C352.428 74.9012 352.456 73.8239 352.382 73.0319" fill="black"/>
<path d="M140.69 72.811C140.69 69.683 140.696 66.5563 140.686 63.4283C140.685 62.715 140.765 62.0177 140.962 61.3363C141.514 59.435 142.801 58.3283 144.718 57.9577C145.478 57.811 146.265 57.8243 147.028 57.9603C148.273 58.1803 149.282 58.8097 150.022 59.847C150.158 60.039 150.272 60.2457 150.408 60.4377C150.56 60.6497 150.733 60.6817 150.918 60.5323C151.05 60.4283 151.17 60.3097 151.292 60.1937C153.164 58.4217 155.429 57.6163 157.968 57.5043C159.66 57.4283 161.326 57.5977 162.95 58.0977C166.084 59.0643 168.221 61.1137 169.426 64.1377C170.026 65.6443 170.342 67.219 170.484 68.8417C170.604 70.2203 170.605 71.595 170.606 72.9723C170.61 75.831 170.602 78.6897 170.612 81.5483C170.614 82.2243 170.556 82.8923 170.45 83.5563C170.068 85.983 168.27 87.587 165.822 87.6817C165.116 87.7083 164.413 87.6963 163.724 87.4843C162.045 86.9697 160.97 85.8723 160.484 84.187C160.285 83.5003 160.248 82.799 160.248 82.0897C160.252 78.9283 160.242 75.7683 160.254 72.607C160.257 71.863 160.177 71.131 160.053 70.4003C159.974 69.9337 159.816 69.4897 159.602 69.0683C158.989 67.863 158.006 67.1803 156.658 67.0723C156.09 67.0283 155.514 67.0337 154.946 67.0777C153.652 67.1777 152.662 67.823 151.966 68.9043C151.408 69.771 151.16 70.747 151.084 71.7657C151.05 72.235 151.056 72.707 151.056 73.1777C151.053 76.1043 151.049 79.0297 151.057 81.955C151.06 82.8043 150.953 83.6323 150.682 84.4363C150.121 86.099 149.002 87.159 147.273 87.535C146.03 87.807 144.805 87.775 143.612 87.2817C142.354 86.7603 141.522 85.8417 141.074 84.5697C140.802 83.803 140.685 83.011 140.688 82.1937C140.696 79.0657 140.69 75.939 140.69 72.811Z" fill="black"/>
<path d="M275.479 84.8631C275.265 84.8871 275.185 85.0498 275.072 85.1684C273.751 86.5471 272.141 87.4178 270.281 87.8018C267.684 88.3391 265.121 88.1351 262.633 87.2351C259.761 86.1964 257.891 84.1311 256.797 81.3258C256.133 79.6178 255.761 77.8391 255.751 76.0071C255.725 71.6671 255.736 67.3284 255.731 62.9884C255.729 62.2738 255.844 61.5844 256.109 60.9178C256.743 59.3244 257.889 58.3338 259.569 57.9911C260.433 57.8151 261.316 57.8138 262.177 57.9844C264.135 58.3738 265.555 59.8738 265.907 61.8924C266.028 62.5871 266.091 63.2898 266.089 64.0004C266.079 66.9951 266.081 69.9884 266.087 72.9831C266.088 73.5551 266.083 74.1298 266.143 74.6964C266.257 75.7924 266.615 76.7911 267.447 77.5711C267.848 77.9471 268.299 78.2431 268.832 78.3644C269.929 78.6178 271.033 78.6444 272.117 78.2924C273.089 77.9751 273.804 77.3418 274.299 76.4511C274.904 75.3618 275.095 74.1698 275.116 72.9498C275.14 71.5711 275.121 70.1911 275.123 68.8124C275.123 66.9618 275.129 65.1124 275.121 63.2618C275.12 62.6164 275.183 61.9831 275.365 61.3658C275.937 59.4364 277.235 58.2964 279.205 57.9471C279.933 57.8178 280.689 57.8164 281.417 57.9524C283.168 58.2778 284.423 59.2458 285.051 60.9458C285.343 61.7404 285.489 62.5644 285.485 63.4164C285.479 64.9298 285.484 66.4444 285.484 67.9578C285.484 72.6004 285.483 77.2431 285.484 81.8858C285.485 82.4578 285.451 83.0244 285.361 83.5924C285.06 85.4924 283.576 87.2498 281.139 87.6351C280.376 87.7564 279.596 87.7471 278.836 87.5364C277.693 87.2218 276.753 86.6231 276.063 85.6404C275.875 85.3751 275.784 85.0258 275.479 84.8631Z" fill="black"/>
<path d="M187.954 57.4992C190.214 57.4779 192.289 57.6219 194.33 58.1005C195.514 58.3779 196.647 58.7965 197.721 59.3699C198.229 59.6419 198.701 59.9659 199.106 60.3712C200.586 61.8499 200.841 64.3819 199.705 66.1472C198.965 67.3005 197.83 67.7299 196.546 67.8672C195.731 67.9552 194.935 67.8005 194.173 67.5139C193.733 67.3499 193.306 67.1472 192.883 66.9432C191.023 66.0379 189.069 65.6712 187.007 65.8592C186.533 65.9032 186.077 66.0005 185.634 66.1659C185.315 66.2832 185.031 66.4632 184.815 66.7339C184.311 67.3632 184.503 68.2699 185.233 68.5939C185.821 68.8552 186.449 68.9739 187.093 69.0032C188.57 69.0712 190.049 69.1219 191.525 69.2125C193.378 69.3272 195.194 69.6352 196.927 70.3405C199.678 71.4605 201.173 73.5192 201.558 76.4352C201.694 77.4739 201.738 78.5005 201.587 79.5472C201.161 82.4832 199.63 84.6472 197.089 86.1219C195.766 86.8885 194.342 87.3859 192.843 87.6712C190.282 88.1605 187.702 88.1699 185.111 87.9525C183.837 87.8459 182.567 87.7232 181.314 87.4699C179.69 87.1419 178.126 86.6485 176.705 85.7645C176.243 85.4792 175.821 85.1512 175.455 84.7512C173.914 83.0659 173.878 80.6805 175.094 78.8805C175.462 78.3352 175.981 77.9539 176.585 77.7165C177.609 77.3125 178.658 77.1632 179.743 77.4819C180.295 77.6445 180.819 77.8645 181.322 78.1392C183.793 79.4899 186.45 79.8912 189.225 79.7072C189.699 79.6765 190.154 79.5592 190.593 79.3872C191.01 79.2232 191.353 78.9605 191.571 78.5552C191.865 78.0125 191.753 77.4912 191.258 77.1325C191.01 76.9525 190.73 76.8392 190.426 76.7925C189.827 76.7005 189.237 76.5592 188.626 76.5725C187.111 76.6032 185.602 76.4659 184.095 76.3525C182.481 76.2312 180.899 75.9032 179.379 75.3299C178.526 75.0072 177.734 74.5685 177.029 73.9805C175.639 72.8232 174.914 71.3045 174.639 69.5539C174.467 68.4579 174.426 67.3605 174.562 66.2419C174.927 63.2485 176.454 61.0445 178.987 59.5005C180.619 58.5072 182.425 57.9925 184.303 57.7032C185.57 57.5072 186.845 57.4672 187.954 57.4992Z" fill="black"/>
<path d="M215.492 72.3482C215.492 73.5255 215.498 74.7028 215.49 75.8802C215.486 76.3908 215.551 76.8895 215.726 77.3668C215.982 78.0642 216.479 78.4522 217.231 78.5188C218.011 78.5895 218.699 78.4242 219.26 77.8455C219.494 77.6042 219.731 77.3642 219.982 77.1402C221.28 75.9735 222.815 75.6255 224.491 75.9548C226.486 76.3482 227.778 77.8988 227.963 80.0108C228.079 81.3335 227.746 82.5428 227.05 83.6628C226.266 84.9255 225.171 85.8442 223.884 86.5588C222.662 87.2375 221.339 87.6148 219.974 87.8455C218.711 88.0602 217.435 88.1388 216.154 88.0641C214.668 87.9788 213.218 87.7081 211.828 87.1588C208.771 85.9535 206.832 83.7215 205.852 80.6215C205.538 79.6255 205.371 78.5988 205.259 77.5575C205.124 76.3162 205.132 75.0735 205.132 73.8295C205.131 67.3042 205.134 60.7788 205.128 54.2522C205.128 53.5775 205.17 52.9082 205.278 52.2428C205.614 50.1468 206.956 48.2935 209.855 48.0388C210.32 47.9975 210.802 48.0122 211.263 48.0842C213.748 48.4695 215.335 50.2202 215.462 52.7668C215.527 54.0762 215.483 55.3908 215.492 56.7028C215.492 57.0042 215.49 57.3082 215.515 57.6095C215.543 57.9362 215.698 58.0948 216.023 58.1308C216.29 58.1602 216.56 58.1602 216.83 58.1602C218.208 58.1628 219.587 58.1735 220.967 58.1562C221.676 58.1482 222.379 58.2122 223.076 58.3122C224.89 58.5722 226.55 59.7588 226.898 62.0428C227.016 62.8148 227.002 63.5828 226.798 64.3442C226.36 65.9868 225.3 67.0095 223.683 67.4695C223.098 67.6362 222.498 67.7002 221.887 67.6975C220.171 67.6895 218.456 67.6935 216.74 67.6975C215.499 67.7002 215.496 67.7042 215.492 68.9175C215.488 70.0615 215.491 71.2055 215.491 72.3482H215.492Z" fill="black"/>
<path d="M305.817 57.4914C307.941 57.474 310.143 57.866 312.257 58.7354C313.733 59.3434 315.061 60.19 316.282 61.21C317.754 62.4394 318.613 64.686 317.539 67.0874C317.039 68.2074 316.171 68.9847 314.983 69.3767C313.27 69.9407 311.666 69.714 310.166 68.73C309.603 68.3607 309.062 67.9634 308.465 67.646C307.114 66.9327 305.67 66.842 304.239 67.182C302.127 67.6847 300.947 69.15 300.489 71.234C300.261 72.2687 300.259 73.302 300.489 74.3354C300.962 76.4634 302.19 77.9474 304.345 78.4114C306.343 78.842 308.223 78.4287 309.835 77.078C310.222 76.7554 310.605 76.422 311.023 76.1434C312.689 75.03 314.455 75.0034 316.202 75.8634C317.757 76.6287 318.478 78.0194 318.589 79.706C318.706 81.462 318.046 82.9287 316.739 84.102C315.399 85.3034 313.911 86.2754 312.214 86.8914C307.334 88.662 302.493 88.5567 297.798 86.326C294.085 84.562 291.637 81.6194 290.439 77.67C289.467 74.462 289.454 71.2394 290.403 68.0234C291.719 63.5687 294.577 60.4967 298.858 58.7447C301.033 57.8554 303.314 57.4834 305.817 57.4914Z" fill="black"/>
<path d="M241.205 61.4028C241.453 61.0841 241.598 60.9015 241.739 60.7135C243.119 58.8775 245.013 57.9748 247.246 57.7255C247.946 57.6468 248.661 57.6375 249.361 57.7508C251.497 58.0961 253.01 59.5975 253.358 61.7388C253.494 62.5708 253.483 63.4121 253.289 64.2455C252.826 66.2268 251.446 67.5535 249.435 67.8828C248.807 67.9855 248.165 68.0135 247.529 68.0495C246.789 68.0908 246.054 68.1215 245.331 68.3161C243.445 68.8255 242.242 70.0015 241.727 71.8921C241.503 72.7148 241.462 73.5495 241.459 74.3921C241.455 76.6455 241.453 78.8988 241.459 81.1521C241.462 81.8601 241.433 82.5641 241.322 83.2628C241.275 83.5615 241.223 83.8601 241.141 84.1508C240.606 86.0428 239.374 87.2041 237.445 87.5908C236.614 87.7561 235.77 87.7508 234.939 87.5748C232.327 87.0255 231.35 85.0108 231.139 83.2828C231.098 82.9495 231.101 82.6108 231.101 82.2748C231.099 75.9521 231.102 69.6281 231.097 63.3055C231.097 62.4575 231.177 61.6295 231.51 60.8375C232.158 59.2988 233.269 58.3201 234.919 57.9935C235.786 57.8228 236.667 57.8108 237.527 57.9815C239.121 58.2975 240.255 59.2255 240.923 60.7108C241.005 60.8935 241.074 61.0801 241.205 61.4028Z" fill="black"/>
<path d="M126.336 72.7505C126.336 69.5918 126.34 66.4331 126.335 63.2758C126.333 62.4611 126.412 61.6691 126.72 60.9051C127.361 59.3171 128.505 58.3291 130.184 57.9905C131.047 57.8145 131.928 57.8131 132.789 57.9851C134.744 58.3758 136.164 59.8771 136.512 61.8905C136.633 62.5851 136.7 63.2851 136.699 63.9958C136.691 69.8425 136.691 75.6891 136.699 81.5345C136.7 82.2451 136.639 82.9451 136.52 83.6411C136.117 86.0025 134.319 87.5825 131.925 87.6798C131.389 87.7025 130.849 87.7145 130.317 87.6118C128.087 87.1785 126.577 85.5118 126.371 83.2331C126.331 82.7985 126.337 82.3598 126.337 81.9238C126.335 78.8651 126.336 75.8078 126.336 72.7505Z" fill="black"/>
<path d="M137.139 49.6867C137.107 50.776 136.903 51.824 136.34 52.7747C135.367 54.4187 133.847 55.164 132.008 55.3413C130.883 55.4493 129.805 55.24 128.772 54.7627C127.684 54.2587 126.888 53.4613 126.413 52.3787C125.584 50.4933 125.561 48.6013 126.509 46.736C127.085 45.6013 127.992 44.8333 129.172 44.4C130.715 43.8307 132.272 43.8413 133.809 44.4173C135.209 44.9413 136.18 45.92 136.711 47.3173C136.999 48.076 137.149 48.868 137.139 49.6867Z" fill="black"/>
<path d="M8.97934 118.998C3.85534 114.645 1.914 109.169 3.41934 102.61C4.54467 97.7092 8.61 95.7852 13.266 97.7625C13.618 97.9132 13.9793 98.3505 14.394 97.7852C14.7247 97.3332 14.882 96.9745 14.5847 96.3812C13.022 93.2705 13.2127 90.0558 14.6647 87.0425C15.5153 85.2772 15.45 83.6638 15.1353 81.8905C14.754 79.7465 14.49 77.5798 14.1153 75.4332C13.9513 74.4932 14.222 74.0158 15.1953 73.9358C15.8447 73.8825 16.4873 73.7038 17.138 73.6772C17.9073 73.6452 18.4753 73.3812 18.8127 72.6652C19.1407 71.9732 19.7233 71.6878 20.462 71.5438C22.0367 71.2358 23.598 70.8545 25.2473 70.4852C23.17 66.0065 22.1873 61.3558 22.3353 56.4905C22.5687 48.8038 25.0353 41.7972 28.974 35.2758C29.5113 34.3865 29.522 33.9852 28.6727 33.3425C26.6967 31.8492 25.0967 30.0225 24.3833 27.5638C23.054 22.9838 26.1993 18.5998 30.9567 18.3452C33.3927 18.2145 35.642 18.7785 37.6913 20.0452C38.3487 20.4518 38.8167 20.4678 39.4593 20.1065C40.4967 19.5265 41.6433 19.2452 42.826 19.1318C44.97 18.9265 45.6847 18.2745 45.9673 16.1838C46.6073 11.4412 47.822 6.87982 50.1753 2.67182C50.1593 2.27182 50.3567 1.93982 50.5233 1.59849C50.594 1.51182 50.678 1.43983 50.77 1.3785C51.0567 1.2145 51.3567 1.07182 51.6247 0.874488C51.8167 0.739821 52.0207 0.633162 52.2527 0.582496C52.49 0.534496 52.7287 0.537154 52.9673 0.578488C53.2047 0.625154 53.4247 0.719824 53.638 0.831824C54.154 1.13182 54.5607 1.55183 54.9313 2.01049C55.1553 2.28383 55.21 2.63049 55.3353 2.94782C57.7073 7.12649 59.1927 11.6078 59.8753 16.3585C59.9647 16.9785 60.1727 17.2905 60.9033 17.4012C63.0287 17.7238 65.09 18.3212 66.774 19.7545C67.346 20.2425 67.618 19.7852 67.9927 19.5452C70.366 18.0132 72.906 17.0705 75.7807 17.4958C80.886 18.2518 83.51 23.1932 81.3433 27.8985C80.7527 29.1825 79.8873 30.2718 78.962 31.3345C84.6607 36.1238 86.7833 42.4732 87.0913 49.6425C87.23 52.8612 87.454 56.0785 87.6447 59.3692C87.81 59.2892 87.958 59.2678 88.0073 59.1865C90.1753 55.6092 93.3967 54.1585 97.4487 54.8212C101.411 55.4705 103.915 58.0398 105.037 61.7652C106.674 67.2038 105.423 74.0305 98.266 76.8558C97.7553 77.0558 97.4073 77.3878 97.0873 77.8238C96.3633 78.8092 95.5633 79.7332 94.6247 80.5292C92.9393 81.9585 92.6033 83.7825 93.6127 85.7945C94.0193 86.6038 94.1993 87.7758 94.8447 88.1398C95.3967 88.4505 96.4593 87.8038 97.31 87.6478C101.947 86.7945 106.417 87.1025 110.621 89.4945C113.995 91.4145 115.642 94.3332 115.861 98.1425C115.89 98.6652 115.906 99.1905 115.966 99.7105C116.49 104.258 118.739 106.534 123.41 107.225C124.185 107.341 124.973 107.378 125.757 107.433C128.443 107.617 129.743 109.858 128.491 112.253C126.903 115.294 124.174 116.853 121.002 117.716C115.214 119.29 109.661 118.148 104.257 116.008C103.107 115.553 102.511 115.653 101.794 116.65C101.143 117.557 100.213 118.264 99.4047 119.057C99.2153 119.521 98.8833 119.858 98.4633 120.113C95.85 121.705 93.066 122.826 89.9673 122.829C66.1047 122.853 42.242 122.861 18.378 122.82C15.2993 122.814 12.4727 121.78 9.91267 120.053C9.51267 119.782 9.12734 119.494 8.97934 118.998Z" fill="#242D3C"/>
<path d="M8.97936 118.998C12.4914 121.573 16.4274 122.532 20.77 122.518C43.0887 122.45 65.406 122.45 87.7234 122.518C92.022 122.532 95.91 121.564 99.4047 119.057C101.166 119.485 102.925 119.916 104.687 120.338C105.674 120.574 106.611 120.952 107.437 121.52C108.194 122.041 108.329 122.657 107.431 123.27C105.609 124.517 103.471 124.854 101.399 125.248C97.182 126.048 92.9194 126.553 88.6327 126.921C82.522 127.448 76.406 127.726 70.2807 127.986C60.4194 128.408 50.5607 128.174 40.702 128.134C37.0167 128.12 33.3114 127.916 29.626 127.648C21.234 127.037 12.81 126.634 4.59936 124.538C3.58469 124.28 2.60069 123.914 1.70469 123.369C0.874026 122.862 0.63936 122.288 1.54869 121.557C2.36069 120.906 3.32869 120.67 4.26469 120.334C5.80603 119.781 7.50736 119.796 8.97936 118.998Z" fill="#C0C2C5"/>
<path d="M91.002 84.3982C88.9113 85.3142 86.7207 85.8556 84.4487 86.0262C80.67 86.3116 78.4407 88.4929 77.7593 92.6356C77.206 96.0009 78.934 99.1049 82.1047 100.44C83.8793 101.185 85.7273 101.436 87.606 101.045C88.5327 100.852 88.7807 101.05 88.6193 101.969C88.238 104.156 87.9033 106.35 87.55 108.541C87.318 109.494 86.538 109.258 85.954 109.176C83.8673 108.878 81.774 108.982 79.682 108.937C76.3273 108.864 73.0847 109.484 69.8953 110.453C68.5913 110.848 67.3007 111.176 65.9127 110.872C62.8273 110.2 61.2527 108.325 61.2473 105.17C61.2327 97.0542 61.242 88.9369 61.2407 80.8209C61.2407 80.1596 61.2593 79.5089 61.6127 78.9209L61.6273 78.9222C62.1393 78.7142 62.6807 78.5649 63.1193 78.2022C66.8767 76.5236 70.8753 76.0222 74.9233 75.6382C78.0207 75.3436 81.0913 75.5076 84.1767 75.6662C86.662 75.7942 88.7487 76.7102 90.2873 78.7009C91.194 79.8742 91.738 81.1809 91.382 82.7156C91.1713 83.2569 91.386 83.8956 91.002 84.3982Z" fill="#F78308"/>
<path d="M21.03 109.062C20.566 106.367 20.1034 103.672 19.6114 100.807C21.5047 101.115 23.2354 101.394 24.9994 100.975C27.8914 100.29 30.0714 98.7829 30.81 95.7936C31.55 92.8096 30.8967 90.0829 28.7474 87.8069C27.57 86.5602 26.0434 86.1482 24.378 86.0242C21.9314 85.8416 19.5754 85.2616 17.3554 84.1909C16.9847 83.1989 17.134 82.1522 17.0394 81.1322C17.7887 78.1082 20.246 76.0376 23.6527 75.7229C28.9687 75.2309 34.2647 75.4602 39.5234 76.4002C41.6754 76.7842 43.7234 77.5002 45.7074 78.4042C46.3087 78.3429 46.474 79.0069 46.9514 79.1496C47.4287 79.7989 47.366 80.5536 47.366 81.2922C47.3687 89.1882 47.3767 97.0842 47.3634 104.979C47.358 109.214 44.0074 111.819 39.87 110.768C37.5447 110.179 35.2567 109.444 32.8607 109.17C29.6874 108.806 26.5114 108.855 23.3327 109.12C22.5687 109.184 21.786 109.486 21.03 109.062Z" fill="#F78308"/>
<path d="M27.0379 64.2674C29.8312 66.9034 33.0552 68.4874 36.9846 68.4647C42.6819 68.4327 47.6379 65.03 49.6939 59.6834C49.8166 59.3634 49.9672 59.054 50.1046 58.7407C50.8019 58.1754 51.6712 58.3234 52.4632 58.2194C54.3032 57.9807 56.1566 58.0154 58.0059 58.1647C58.9392 61.0874 60.4246 63.6474 62.8859 65.5594C69.2832 70.526 78.0192 69.07 82.6499 62.2714C82.6952 62.206 82.7819 62.17 82.8486 62.1207C83.1126 62.0714 83.2379 62.1674 83.1886 62.4447C82.7606 63.8354 82.6272 65.2927 82.1246 66.674C80.8592 70.158 80.8939 70.1314 77.2606 69.9087C72.0299 69.5874 66.9072 70.1207 61.9806 72.038C58.9606 73.214 56.2752 74.834 54.4486 77.6527C50.9139 72.7767 45.6912 71.2247 40.1939 70.2887C36.1272 69.5967 32.0259 69.662 27.9419 70.2314C27.2206 70.3314 26.8152 70.1487 26.5352 69.458C25.9486 68.0087 25.2926 66.586 24.9872 65.0394C25.6619 64.7594 26.2739 64.3114 27.0379 64.2674Z" fill="#FEF5ED"/>
<path d="M74.7938 32.5663C74.5684 33.1663 75.1218 33.4183 75.3751 33.769C77.9858 37.3943 80.0218 41.3116 81.5964 45.741C80.6658 44.9876 79.9471 44.3356 79.1618 43.7783C73.4711 39.7383 65.7658 40.5983 61.1671 45.8316C60.5351 46.553 60.2391 46.6103 59.4831 45.9836C56.2618 43.3103 51.7991 43.3583 48.5431 46.053C48.0098 46.493 47.7791 46.5783 47.2578 46.0063C41.2684 39.4316 31.9658 39.6623 26.2578 46.4903C26.0991 46.6796 25.9644 46.8863 25.6804 47.2743C25.6111 44.2036 30.7071 34.5636 33.7418 31.7236C33.9911 32.4276 34.1844 33.121 34.4778 33.7676C36.2124 37.6076 39.3431 39.437 43.4071 39.853C45.6351 40.0823 47.8578 39.9196 50.0511 39.5023C51.1244 39.2983 52.1644 39.1943 53.2698 39.2996C56.4964 39.6063 59.6084 38.9823 62.6244 37.8516C63.3764 37.569 64.0871 37.5143 64.9058 37.6423C68.6311 38.2196 71.5391 36.8036 73.7564 33.8156C74.0764 33.3836 74.1964 32.7556 74.8311 32.5943L74.7938 32.5663Z" fill="#FEFEFE"/>
<path d="M94.1447 74.2055C93.674 73.9548 93.154 73.9322 92.6407 73.8788C91.4194 73.7522 90.3114 73.5255 89.666 72.2348C89.2874 71.4802 88.322 71.5375 87.5874 71.3535C86.2887 71.0295 84.9727 70.7882 83.6634 70.5108C83.2327 70.2908 82.9447 69.9548 82.8247 69.4815C83.5234 67.3348 84.3287 65.2255 84.73 62.9855C86.0127 55.8322 84.766 49.0175 82.0327 42.4002C80.7954 39.4082 79.2567 36.5748 77.426 33.9015C77.214 33.5922 76.718 33.2735 77.266 32.8042C77.7687 32.3722 78.0807 32.7935 78.3887 33.0455C82.122 36.0975 84.018 40.2108 84.9367 44.8028C85.6754 48.4908 85.606 52.2655 85.766 56.0108C85.918 59.5402 86.046 63.0748 87.0714 66.4948C87.5154 67.9748 88.1567 69.3508 89.3594 70.3908C90.6647 71.5175 92.4234 71.7428 93.7754 70.9548C93.686 70.5895 93.378 70.6802 93.142 70.6775C90.9314 70.6562 89.798 69.3162 89.0287 67.4348C87.0554 62.6055 88.562 59.6228 92.0887 57.4282C95.5874 55.2495 99.566 56.1548 102.085 59.4308C104.391 62.4282 104.742 67.5375 102.869 70.8335C100.471 73.2762 97.5127 74.2722 94.1447 74.2055Z" fill="#17A5DC"/>
<path d="M28.6609 63.4471C25.2116 60.0991 24.1489 56.0404 25.4823 51.4951C26.8663 46.7697 30.1489 43.8257 35.0036 43.0497C44.8383 41.4751 51.2596 51.2031 48.2663 58.7457C47.2676 59.6071 45.0076 59.8537 43.7543 59.2404C43.4316 58.6617 43.7769 58.1471 43.9183 57.6151C44.4609 55.5791 44.4929 53.5631 43.5356 51.6391C42.8689 50.2991 41.8876 49.2231 40.2729 49.1697C38.7063 49.1191 37.6169 49.9884 36.7289 51.2431C35.6929 52.7071 35.6076 54.4031 35.3476 56.0684C35.0263 56.6351 34.4983 56.5097 33.9729 56.5297C32.2276 56.5951 30.5023 56.7671 29.1329 58.0551C27.6516 59.4484 27.5849 60.5657 28.9063 62.0924C29.1596 62.3857 29.4689 62.6404 29.5476 63.0511C29.4609 63.6524 29.1516 63.7537 28.6609 63.4471Z" fill="#FEFEFE"/>
<path d="M50.4141 113.249C50.3968 106.265 50.3741 99.2798 50.3675 92.2958C50.3635 89.1532 50.3941 86.0105 50.4088 82.8678C51.5488 82.6118 52.5515 83.2918 53.6781 83.3292C55.1555 83.3758 56.5315 82.8225 57.9848 82.8825C58.0021 90.1718 58.0288 97.4612 58.0355 104.752C58.0381 107.588 57.9981 110.424 57.9768 113.26C56.7395 114.476 55.1408 114.421 53.6181 114.344C52.4955 114.287 51.2648 114.24 50.4141 113.249Z" fill="#F78308"/>
<path d="M60.0216 58.7616C57.0483 51.2242 63.1416 42.6882 71.447 42.8749C76.3203 42.9842 79.979 45.2922 82.1056 49.6789C84.239 54.0802 83.647 58.3176 80.7763 62.2509C80.651 62.4216 80.4723 62.5522 80.3176 62.7029C79.5203 62.9989 78.8403 62.9722 78.5016 62.0309C78.5083 61.5376 78.907 61.2856 79.1696 60.9496C80.1803 59.6602 80.0976 58.3562 78.8736 57.2336C77.5776 56.0456 75.9536 55.7082 74.2683 55.6976C73.2496 55.6922 72.5776 55.3896 72.4216 54.3122C72.1723 52.9122 71.619 51.6522 70.6603 50.5936C68.7283 48.4602 66.043 48.7416 64.591 51.2296C63.427 53.2269 63.3656 55.3402 63.9283 57.5322C64.0656 58.0696 64.515 58.6789 63.8283 59.1922C62.5376 59.2389 61.2443 59.3069 60.0216 58.7616Z" fill="#FEFEFE"/>
<path d="M16.8575 104.337C18.9482 106.533 19.6148 109.253 19.7295 112.175C19.9655 112.677 19.7975 113.128 19.4908 113.515C16.9375 116.729 12.2882 118.195 8.52552 115.667C7.86018 115.219 7.36018 114.625 6.80952 114.071C4.74952 111.12 4.16018 107.857 4.74018 104.345C5.01752 104.048 4.94018 103.613 5.14685 103.287C8.24818 98.6598 12.7175 100.097 15.7868 103.029C16.1962 103.421 16.4735 103.923 16.8575 104.337Z" fill="#FAC082"/>
<path d="M61.6122 78.921C61.6215 87.745 61.7482 96.5703 61.5842 105.39C61.5135 109.245 65.6228 111.208 68.2282 110.485C70.8655 109.754 73.4842 108.953 76.2282 108.705C79.1842 108.436 82.1362 108.446 85.0948 108.698C85.9042 108.768 86.7762 109.218 87.5509 108.541C87.3815 109.745 87.1895 110.946 87.0535 112.154C86.9748 112.844 86.7068 113.012 86.0162 112.866C82.9282 112.216 79.7935 112.122 76.6482 112.173C70.7722 112.266 65.2628 113.609 60.3068 116.884C60.1668 116.977 60.0068 117.04 59.8455 117.124C59.4508 116.682 59.6348 116.181 59.6348 115.73C59.6215 104.518 59.6655 93.3063 59.5815 82.0943C59.5682 80.4143 60.1682 79.489 61.6122 78.921" fill="#CD7212"/>
<path d="M103.624 103.829C104.184 106.827 103.992 109.73 102.527 112.471C100.523 115.498 97.5132 116.363 94.1399 116.158C91.3972 115.99 88.9119 113.477 88.8759 111.123C88.8012 108.627 89.8639 106.553 91.2879 104.611C92.5039 103.382 93.5866 102.027 95.1932 101.213C98.7052 99.4339 101.801 100.362 103.624 103.829Z" fill="#FAC082"/>
<path d="M21.0301 109.062C24.8181 108.343 28.6274 108.41 32.4474 108.723C35.1514 108.944 37.7034 109.812 40.3074 110.462C43.8194 111.338 46.9674 108.891 46.966 105.31C46.9634 96.5896 46.9567 87.8696 46.9514 79.1496C48.3994 79.539 48.8287 80.451 48.8194 81.9576C48.7554 93.167 48.7847 104.375 48.7847 115.583V116.998C48.314 117.208 48.0874 116.858 47.818 116.682C43.3914 113.796 38.4727 112.482 33.2541 112.22C29.5914 112.036 25.9301 112.122 22.3221 112.883C21.7394 113.006 21.5434 112.847 21.4647 112.29C21.3154 111.214 21.0101 110.16 21.0301 109.062Z" fill="#CD7312"/>
<path d="M54.9812 20.2003C53.6906 25.5576 54.6519 30.3976 58.2959 34.6203C56.7532 35.3243 55.1359 35.0563 53.5732 34.847C50.6159 34.4496 48.2759 32.935 46.6092 30.4563C44.9959 28.0603 43.9999 25.4643 44.2999 22.503C44.3106 21.8083 44.5412 21.2043 45.0359 20.7083C47.8852 18.5856 50.9799 18.3656 54.2492 19.531C54.5812 19.6483 54.8852 19.815 54.9812 20.2003Z" fill="#F31B82"/>
<path d="M69.5489 26.841C70.7529 27.9837 72.1449 28.8183 73.6956 29.3997C73.9943 30.2023 73.3529 30.601 72.9196 31.0183C70.6409 33.221 67.8823 33.9023 64.8489 33.2117C59.8756 32.081 56.9689 28.9277 56.1383 23.8837C56.0863 22.8997 56.0889 21.9237 56.4716 20.9917C57.3943 20.173 58.5263 20.4303 59.5969 20.3983C63.1609 20.2943 65.9476 21.6317 67.7329 24.817C68.1849 25.6237 68.7889 26.305 69.5489 26.841Z" fill="#17A5DC"/>
<path d="M95.2461 91.229C94.9155 90.205 95.3288 89.7503 96.3528 89.513C100.622 88.5263 104.794 88.4463 108.875 90.369C112.39 92.025 114.178 94.749 114.306 98.6037C114.326 99.2143 114.357 99.825 114.407 100.433C114.877 106.017 118.981 108.058 123.305 108.813C124.241 108.976 125.198 109.013 126.393 109.134C124.421 110.665 122.357 110.718 120.329 110.21C115.382 108.972 112.103 105.682 109.842 101.249C109.263 100.129 108.799 98.9703 108.431 97.757C107.295 93.9997 104.775 91.9983 100.893 91.581C99.2475 91.4037 97.6155 91.209 95.9635 91.445C95.6995 91.481 95.4421 91.4437 95.2461 91.229Z" fill="#17A5DC"/>
<path d="M105.461 104.872C105.324 104.058 105.248 103.228 105.038 102.432C103.922 98.2109 101.029 96.5269 96.2424 97.2736C95.4571 97.1896 94.3917 97.5816 94.3757 96.1816C94.4491 95.4976 94.9277 95.4256 95.4957 95.3589C100.434 94.7829 104.432 96.3522 107.294 100.507C108.533 102.303 109.625 104.211 110.972 105.919C113.67 109.343 117.176 111.48 121.57 112.023C123.276 112.234 124.86 111.868 126.374 111.106C126.6 110.992 126.844 110.768 127.074 111.024C127.292 111.264 127.077 111.507 126.962 111.734C126.096 113.468 124.428 113.982 122.746 114.24C120.72 114.554 118.658 114.512 116.674 113.815C112.513 112.556 109.281 109.914 106.324 106.862C105.785 106.306 105.561 105.618 105.461 104.872Z" fill="#F31B82"/>
<path d="M58.0053 58.1646C57.844 58.4046 57.6053 58.4913 57.3347 58.4739C54.916 58.3326 52.516 58.6806 50.104 58.7406C50.9707 55.1833 50.7213 51.7393 48.9853 48.4739C48.708 47.9526 49.012 47.7726 49.2827 47.5059C51.804 45.0166 56.368 45.0273 58.8933 47.5233C59.2147 47.8406 59.4853 48.1113 59.208 48.6366C57.616 51.6579 57.4107 54.8633 58.0053 58.1646Z" fill="#FEFEFE"/>
<path d="M92.6336 87.5544C93.187 88.2518 93.0843 89.1478 93.3496 89.9318C93.2736 92.5251 91.2563 95.2584 88.6616 96.2584C86.1683 97.2211 83.6736 97.2491 81.1843 96.2304C80.4923 95.9464 79.847 95.6024 79.467 94.9131C79.0163 93.5318 79.3536 92.2358 79.8896 90.9611C81.1056 89.1944 82.843 88.5704 84.9216 88.4878C86.711 88.4158 88.4323 87.8744 90.1323 87.3331C91.0203 87.0518 91.835 87.0731 92.6336 87.5544Z" fill="#FAC082"/>
<path d="M28.838 91.2219C29.6527 92.3619 29.5633 93.6259 29.346 94.9085C28.0047 96.7445 25.9127 97.0125 23.978 96.9939C20.6673 96.9619 17.7567 95.8192 16.11 92.6045C15.6273 91.6619 15.322 90.6925 15.478 89.6192C15.4567 89.5419 15.4753 89.4739 15.5327 89.4179C16.5433 87.5539 18.2967 87.5725 19.9873 87.8592C21.918 88.1872 23.8447 88.5352 25.778 88.8552C27.182 89.0872 28.2753 89.8419 28.838 91.2219Z" fill="#FAC082"/>
<path d="M88.8757 111.123C90.6717 115.899 94.3651 116.806 98.8691 115.103C100.338 114.548 101.378 113.447 102.526 112.472C100.702 116.612 97.4464 119.088 93.2037 120.315C89.7197 121.322 86.1291 120.81 82.5797 120.83C82.4891 120.378 82.7997 120.088 83.0344 119.791C84.1997 118.318 85.3037 116.807 86.1904 115.146C86.3197 114.904 86.5131 114.736 86.7744 114.651C87.7864 114.958 88.3304 114.648 88.4304 113.532C88.5024 112.723 88.7224 111.926 88.8757 111.123Z" fill="#CFA275"/>
<path d="M22.3256 114.565C30.211 113.102 37.923 113.292 45.251 117.01C45.9403 117.361 46.551 117.866 47.1976 118.298C46.931 119.041 46.287 118.888 45.7723 118.806C44.2523 118.564 42.7256 118.598 41.2043 118.644C37.103 118.761 33.0216 118.268 28.9216 118.338C26.739 118.374 24.8683 117.402 23.2016 116.056C22.743 115.685 22.2056 115.302 22.3256 114.565Z" fill="#FEFEFE"/>
<path d="M61.6447 117.98C65.7314 115.188 70.3727 114.149 75.2007 113.817C78.554 113.588 81.91 113.742 85.2274 114.362C85.6887 114.457 85.9514 114.66 85.6674 115.165C85.47 115.514 85.19 115.789 84.8714 116.022C83.034 117.361 81.0154 118.268 78.7154 118.345C73.5714 118.517 68.4287 118.762 63.2794 118.617C62.6887 118.6 61.9354 118.836 61.6447 117.98Z" fill="#FEFEFE"/>
<path d="M61.6447 117.98C62.0207 118.432 62.5367 118.236 62.99 118.237C66.1687 118.248 69.3634 118.426 72.5207 118.165C75.1594 117.945 77.826 118.293 80.434 117.712C82.2087 117.317 83.766 116.488 85.1474 115.318C85.4914 115.028 85.8527 114.734 85.2274 114.362C85.778 114.277 86.2567 114.566 86.774 114.65C85.714 116.94 84.1647 118.896 82.5807 120.829C74.8674 120.849 67.1527 120.869 59.4394 120.888C59.278 120.888 59.118 120.856 58.918 120.834C59.4847 119.496 60.4047 118.584 61.6447 117.98Z" fill="#D2D4D7"/>
<path d="M60.0216 58.7616C61.3883 58.6096 62.7323 58.8763 64.0843 58.9803C64.4283 58.9896 64.6483 59.2216 64.8029 59.471C65.8616 61.1763 67.4403 61.7243 69.3536 61.559C70.2523 61.6136 70.9883 62.1443 71.8176 62.4083C73.6416 62.9896 75.4256 62.8776 77.2016 62.2123C77.6749 62.035 78.1176 61.6576 78.6829 61.899C78.9549 62.7203 79.7163 62.5496 80.3176 62.703C77.1696 66.3203 73.1723 67.599 68.5816 66.539C64.3723 65.5656 61.4136 62.9616 60.0216 58.7616Z" fill="#FEF5ED"/>
<path d="M22.3257 114.565C24.075 116.776 26.3777 117.949 29.1763 117.961C34.255 117.981 39.327 118.405 44.4083 118.246C45.3403 118.218 46.259 118.841 47.1977 118.298C48.375 118.736 48.9577 119.713 49.5217 120.842H25.9857C23.8577 119.449 22.703 117.326 21.6817 115.105C21.6057 114.941 21.6683 114.765 21.7817 114.62C21.963 114.601 22.1443 114.584 22.3257 114.565Z" fill="#D2D4D7"/>
<path d="M21.7813 114.62C22.6613 117.046 24.3267 118.942 25.9853 120.842C22.3773 120.793 18.724 121.341 15.184 120.304C11.6507 119.269 8.69333 117.369 6.80933 114.07C8.40666 115.16 9.93066 116.326 11.968 116.604C14.548 116.956 18.9867 114.928 19.7293 112.176C19.988 112.508 19.9333 112.91 19.976 113.29C20.1427 114.721 20.3587 114.88 21.7813 114.62Z" fill="#CFA275"/>
<path d="M42.4793 22.5286C42.3793 25.3526 42.2553 28.1672 43.2047 30.9152C43.6953 32.3312 44.4233 33.6046 45.154 34.8886C45.006 35.0659 44.8047 35.1699 44.586 35.1606C40.146 34.9699 35.4487 31.2219 35.686 26.7512C35.8593 25.5859 36.534 24.7019 37.306 23.8726C38.3953 22.9166 39.7007 22.4672 41.1073 22.2752C41.5847 22.2099 42.07 22.1859 42.4793 22.5286Z" fill="#46CA5C"/>
<path d="M43.8204 59.0109C45.3444 59.6309 46.7897 58.9203 48.2657 58.7456C45.8044 66.9909 34.6017 69.6776 28.6604 63.4469C29.0071 63.4576 29.3604 63.4829 29.3951 62.9923C29.7351 62.7349 30.0577 62.9283 30.3697 63.0443C33.3204 64.1483 36.0431 63.8336 38.4857 61.7536C38.8031 61.5949 39.1484 61.5469 39.4924 61.5616C40.9804 61.6216 42.0244 60.8789 42.8911 59.7616C43.1337 59.4496 43.2457 58.9296 43.8204 59.0109Z" fill="#FEF5ED"/>
<path d="M69.7879 24.4185C69.3626 23.9625 69.1572 23.3891 68.9199 22.8278C68.2346 21.2158 68.2199 21.2038 69.7906 20.3318C71.5799 19.3398 73.4799 18.7798 75.5479 19.0678C79.3946 19.6038 81.4946 23.1665 80.0652 26.8025C79.0532 29.3811 77.1132 31.1598 74.7919 32.5651C74.7932 32.5665 74.8279 32.5918 74.8306 32.5931C74.8026 31.4158 75.7146 30.5451 75.8732 29.4238C75.9399 28.9545 76.3492 28.4731 75.7826 28.0478C75.6706 27.4238 76.1239 26.9998 76.3519 26.5051C76.8546 25.4118 76.8039 24.3838 76.0279 23.4731C75.2599 22.5731 74.2199 22.3531 73.0839 22.5478C72.1546 22.7065 71.4066 23.2038 70.7159 23.8158C70.4399 24.0598 70.2679 24.4838 69.7879 24.4185Z" fill="#FEFEFE"/>
<path d="M32.808 30.1269C32.392 30.6282 31.888 31.0815 31.58 31.6415C30.8467 32.9735 30.136 32.6909 29.2254 31.8175C28.2147 30.8469 27.2254 29.8749 26.536 28.6415C24.1974 24.4575 26.8067 19.9642 31.5947 19.9149C33.336 19.8975 34.9347 20.3722 36.4627 21.1842C36.9774 21.4589 37.1094 21.6362 36.6387 22.1042C36.0854 22.6522 35.6214 23.2922 35.1187 23.8909C34.5227 24.0482 34.0307 23.6869 33.4907 23.5615C31.652 23.1322 30.1614 23.7082 29.6334 25.0695C29.0907 26.4682 29.9094 28.2602 31.4187 29.1162C31.912 29.3949 32.644 29.3855 32.808 30.1269Z" fill="#FEFEFE"/>
<path d="M44.2996 22.5024C44.7249 26.7264 46.0396 30.509 49.7196 33.0424C51.4569 34.2397 53.4449 34.6744 55.5436 34.6357C56.4609 34.6184 57.3783 34.625 58.2956 34.621C59.1809 35.2477 60.0663 35.8744 60.9503 36.501C57.6356 38.1744 51.6676 38.361 48.4436 35.9064C44.9569 33.253 42.9756 27.0304 44.2996 22.5024Z" fill="#C91F74"/>
<path d="M56.1388 23.8833C56.9948 26.4073 57.9948 28.8446 60.1215 30.6193C63.5735 33.498 69.5362 34.474 73.1988 30.2833C73.4282 30.0193 73.7042 29.7926 73.6948 29.3993C74.5015 29.6193 73.9375 30.1126 73.8228 30.3846C72.5482 33.386 70.6588 35.8366 67.1615 36.118C63.6522 36.4006 60.6402 35.1566 58.4895 32.2473C56.6562 29.7686 55.8868 26.962 56.1388 23.8833Z" fill="#1A8DBC"/>
<path d="M50.4142 113.249C52.9342 114.234 55.4542 114.278 57.9768 113.26C57.9942 114.998 57.9915 116.738 58.0355 118.476C58.0542 119.206 57.7222 119.602 57.0702 119.828C55.1502 120.488 53.2342 120.481 51.3182 119.82C50.6768 119.598 50.3342 119.201 50.3555 118.465C50.4035 116.726 50.3982 114.988 50.4142 113.249Z" fill="#CD7312"/>
<path d="M91.2319 82.8448C91.2292 79.2675 88.6785 76.4248 84.9545 76.0955C79.0865 75.5768 73.2372 75.7915 67.4705 77.1048C65.9505 77.4515 64.4719 77.9795 62.9745 78.4235C62.8212 78.5248 62.6852 78.5048 62.5679 78.3622C65.9639 76.3235 69.7439 75.5142 73.5959 75.0168C79.4665 74.2608 85.3305 74.5435 91.1972 75.2182C92.5439 75.3728 92.7332 75.8902 92.5105 77.0488C92.1092 79.1422 91.8079 81.2555 91.4652 83.3608C91.0319 83.3488 91.1292 83.0982 91.2319 82.8448Z" fill="#FAC183"/>
<path d="M45.7078 78.4047C43.4638 77.9194 41.3238 77.054 39.0464 76.6794C33.8771 75.826 28.6758 75.5954 23.4758 76.1274C20.4998 76.4314 18.2931 78.0327 17.3304 81.0274C16.9371 81.374 17.6278 82.118 16.8531 82.3247C16.5184 80.3087 16.2051 78.2887 15.8384 76.278C15.7224 75.6394 15.9638 75.4114 16.5438 75.334C22.2171 74.5754 27.9024 74.302 33.6091 74.8714C37.1304 75.222 40.5731 75.922 43.8518 77.3047C44.5224 77.5887 45.1718 77.8994 45.7078 78.4047Z" fill="#FAC183"/>
<path d="M35.6856 26.7517C36.3416 30.0997 38.035 32.6611 41.2736 34.0037C42.5096 34.5157 43.791 34.9011 45.1536 34.8891C46.155 35.9637 47.1496 37.0451 48.379 37.8424C48.3283 37.9744 48.3096 38.1037 48.2736 38.1077C42.9176 38.8371 38.0723 37.9931 35.947 33.0624C35.059 31.0011 34.827 28.8944 35.6856 26.7517Z" fill="#3FAA56"/>
<path d="M79.4663 94.9125C80.809 95.7245 82.189 96.3525 83.801 96.5365C88.661 97.0872 92.1143 94.4405 93.0943 90.5032C93.1436 90.3045 93.2623 90.1219 93.3503 89.9325C95.073 95.1339 90.3116 100.497 84.8316 99.5299C81.501 98.9405 79.8543 97.5232 79.4663 94.9125Z" fill="#CFA274"/>
<path d="M15.478 89.6196C16.5713 94.8436 19.49 96.3489 23.8567 96.6769C25.794 96.8223 27.7167 96.1236 29.346 94.9089C28.818 97.7156 26.7527 99.3556 23.4247 99.6076C17.8193 100.032 13.8673 95.0649 15.478 89.6196Z" fill="#CFA274"/>
<path d="M95.2462 91.229C98.2608 90.713 101.206 90.985 104.082 92.0197C106.683 92.9544 107.789 95.201 108.747 97.5064C109.243 98.6997 109.485 99.9984 109.842 101.249C108.757 99.9584 107.861 98.5264 106.675 97.301C103.889 94.421 100.386 93.5437 96.5888 93.7024C95.2582 93.7584 95.0368 93.369 95.1982 92.2677C95.2488 91.9264 95.2328 91.5757 95.2462 91.229Z" fill="#1A8DBC"/>
<path d="M87.0528 73.2003C85.1341 73.091 83.2155 72.9803 81.2981 72.871C78.4768 72.6323 75.6581 72.8403 72.8555 73.0616C69.9075 73.295 67.0155 73.9123 64.2008 74.9003C62.1208 75.6296 60.1888 76.5696 58.5008 77.9923C58.2648 78.191 58.0181 78.363 57.7061 78.4176C57.1941 78.5136 56.5621 78.3003 56.4155 78.0096C56.1901 77.5643 56.7928 77.2056 57.1155 76.8923C59.9861 74.107 63.6061 72.8763 67.4048 72.123C73.7648 70.8643 80.0848 71.4443 86.3755 72.723C86.7595 72.8016 87.1461 72.867 87.5301 72.939C87.5755 73.4003 87.3075 73.287 87.0528 73.2003Z" fill="#FDFDFD"/>
<path d="M27.31 72.8716C26.5434 72.8929 25.7767 72.9129 25.01 72.9343C24.286 72.9209 23.4994 73.3996 22.866 72.6649C30.6434 71.1276 38.39 70.6236 46.0207 73.4343C48.2434 74.2543 50.3034 75.3569 51.9314 77.1343C52.126 77.3463 52.5034 77.5409 52.3874 77.8583C52.246 78.2463 51.7967 78.1023 51.4727 78.1649C50.9354 78.2769 50.5554 77.9503 50.1887 77.6609C47.006 75.1583 43.2567 74.0196 39.3687 73.3929C35.3847 72.7516 31.35 72.5609 27.31 72.8716Z" fill="#FDFDFD"/>
<path d="M69.7879 24.4185C70.7199 23.1132 71.9559 22.2585 73.5666 22.1119C76.0119 21.8879 77.6799 24.2132 76.7172 26.4812C76.4826 27.0359 76.0986 27.5279 75.7826 28.0479C73.1599 27.8692 71.1746 26.6399 69.7879 24.4185Z" fill="#FAC083"/>
<path d="M53.2716 15.7948C52.7943 16.2655 52.1929 16.2641 51.5756 16.2855C50.8396 16.3108 50.1009 16.3841 49.3743 16.5055C47.4729 16.8241 47.4449 16.8335 47.7676 14.8681C47.9449 13.7801 47.7969 12.3881 49.5423 12.3975C49.7529 12.5121 49.8063 12.7148 49.8609 12.9268C49.9529 13.2828 49.7863 13.8441 50.2396 13.9335C50.8009 14.0441 50.9903 13.4481 51.2209 13.0628C51.5956 12.4388 51.8743 11.7561 52.4289 11.2521C53.3103 10.6535 54.1929 10.0548 55.0769 9.45615C55.9449 9.53082 55.8903 10.2455 55.9316 10.8028C56.0996 13.0148 55.0489 14.6055 53.2716 15.7948Z" fill="#F78308"/>
<path d="M32.808 30.1268C32.0387 29.7375 31.2014 29.4388 30.5134 28.9362C29.2387 28.0055 28.76 25.9695 29.4 24.7162C30.0947 23.3548 31.7094 22.7135 33.448 23.1775C34.028 23.3322 34.564 23.6482 35.1187 23.8908C34.264 25.5135 33.6134 27.2002 33.6094 29.0642C33.6067 29.6588 33.1867 29.8588 32.808 30.1268Z" fill="#FAC083"/>
<path d="M27.3101 72.8716C28.8074 72.3529 30.4061 72.4796 31.9167 72.4516C35.0181 72.3956 38.1354 72.6649 41.1954 73.3649C44.9741 74.2303 48.4887 75.6183 51.4727 78.1649C50.3487 79.0689 49.4554 78.7516 48.3181 77.9449C44.4234 75.1863 39.9087 74.0756 35.2541 73.4356C32.6181 73.0729 29.9607 73.0183 27.3101 72.8716Z" fill="#F1F2F3"/>
<path d="M104.607 112.168C104.787 111.508 104.967 110.848 105.185 110.049C109.533 113.112 114.022 115.472 119.289 115.91C119.435 116.232 120.105 115.68 120.036 116.358C118.858 116.589 117.678 116.786 116.47 116.688C112.564 116.446 108.886 115.381 105.426 113.574C104.917 113.309 104.299 112.972 104.607 112.168Z" fill="#46CA5C"/>
<path d="M103.624 103.829C102.745 103.123 102.213 102.073 101.229 101.466C98.9132 100.039 95.9332 100.565 93.4506 102.793C92.7519 103.419 92.2919 104.345 91.2879 104.611C92.1239 103.206 92.8172 101.69 94.0039 100.534C95.7426 98.8393 97.8252 98.0647 100.196 98.886C102.468 99.674 103.36 101.57 103.624 103.829Z" fill="#FBE4CB"/>
<path d="M16.8575 104.337C15.5948 103.362 14.5162 102.148 13.0575 101.426C10.5762 100.2 7.98683 100.266 6.13083 102.57C5.85883 102.906 5.56816 103.226 5.2855 103.556C4.77483 103.572 4.9055 103.272 5.00416 102.988C5.73616 98.7664 10.0882 97.081 13.9548 100.078C15.3402 101.152 16.2255 102.686 16.8575 104.337Z" fill="#FBE4CB"/>
<path d="M57.7059 78.417C59.0645 76.6517 60.9899 75.7384 62.9845 74.957C67.5019 73.1864 72.1992 72.433 77.0405 72.6437C78.4592 72.7064 79.9032 72.357 81.2979 72.8717C76.5205 73.061 71.7552 73.3024 67.1285 74.689C64.3192 75.5317 61.6645 76.681 59.3365 78.4797C58.6925 78.977 58.2285 79.0277 57.7059 78.417Z" fill="#F0F1F2"/>
<path d="M69.549 26.8409C68.4996 26.5769 67.861 25.7396 67.425 24.9143C65.3023 20.8943 60.9663 20.2223 56.861 20.9489C56.733 20.9716 56.6023 20.9769 56.4716 20.9916C56.965 19.5129 58.0396 18.8009 59.5476 18.9076C63.205 19.1676 66.405 20.1863 67.7516 24.1383C68.105 25.1743 68.8503 26.0063 69.549 26.8409Z" fill="#A0D9EF"/>
<path d="M49.8335 10.4836C49.5308 10.6476 49.2068 10.913 48.8762 10.6996C48.6388 10.545 48.7748 10.205 48.8495 9.96629C49.5788 7.63696 50.3935 5.34496 51.7562 3.28629C52.3375 2.40762 52.8788 2.30229 53.4802 3.24229C53.6908 3.57296 53.9335 3.88362 54.1335 4.21962C55.6948 6.83696 55.6002 7.20629 52.9802 8.89696C52.4748 8.31296 52.7642 7.54896 52.5295 6.90362C52.4428 6.66496 52.4442 6.33829 52.1522 6.27696C51.8522 6.21429 51.7095 6.50629 51.5655 6.71562C50.8935 7.69562 50.5788 8.83296 50.1575 9.92496C50.0815 10.1236 49.9895 10.325 49.8335 10.4836Z" fill="#F58309"/>
<path d="M28.838 91.2218C27.6034 89.5111 25.7807 89.0445 23.83 88.9138C22.7367 88.8391 21.674 88.6138 20.6314 88.3325C18.7247 87.8151 17.0154 88.0338 15.5327 89.4165C15.5487 89.2458 15.534 89.0631 15.5834 88.9018C16.49 85.8871 16.486 85.9071 19.4754 86.7298C21.1567 87.1938 22.8607 87.5365 24.6154 87.6645C26.8834 87.8298 28.4954 89.2485 28.838 91.2218Z" fill="#FBE4CB"/>
<path d="M92.6336 87.5546C90.2043 87.1506 88.1056 88.6373 85.7656 88.7586C85.035 88.7973 84.307 88.8973 83.5776 88.9626C82.059 89.0986 81.039 90.148 79.8896 90.9613C80.7003 88.8946 82.159 87.724 84.4256 87.624C86.4883 87.5333 88.467 87.0093 90.4163 86.3706C92.0283 85.844 92.023 85.828 92.6336 87.5546Z" fill="#FAE3CA"/>
<path d="M105.461 104.872C106.794 107.608 109.296 109.175 111.569 110.971C113.117 112.196 115.001 112.816 116.674 113.815C112.548 113.011 109.068 110.906 105.774 108.416C105.445 108.167 105.437 107.842 105.442 107.484C105.456 106.614 105.456 105.743 105.461 104.872Z" fill="#C81F74"/>
<path d="M94.1447 74.2055C95.198 73.9841 96.2553 73.7895 97.3007 73.5388C99.3527 73.0468 101.151 72.0201 102.869 70.8335C101.207 74.1481 98.1847 75.4561 94.8313 76.2668C94.398 76.3721 94.1607 76.2268 94.3007 75.7095C94.4407 75.1975 94.4967 74.6761 94.1447 74.2055Z" fill="#1A8DBC"/>
<path d="M104.607 112.168C104.957 113.344 106.058 113.594 106.975 113.993C110.015 115.313 113.25 115.98 116.469 116.688C114.103 117.049 111.803 116.552 109.527 116.038C108.005 115.696 106.551 115.057 105.039 114.653C103.815 114.326 103.645 113.714 104.275 112.72C104.39 112.538 104.497 112.352 104.607 112.168Z" fill="#44C059"/>
<path d="M54.9812 20.2004C52.1039 18.8217 49.2306 18.9084 46.3519 20.2004C45.9239 20.3937 45.4746 20.5404 45.0359 20.7084C46.9519 17.9937 52.6332 16.8644 55.2386 18.707C56.0999 19.3164 54.9999 19.6884 54.9812 20.2004Z" fill="#F8A1CA"/>
<path d="M53.2716 15.7948C53.8249 14.8281 54.9009 14.2521 55.2356 13.1121C55.5996 11.8668 56.0489 10.6361 55.0769 9.45613C56.1476 8.31213 56.2209 8.2908 56.6503 9.73747C57.6649 13.1681 58.1769 12.2201 55.1623 14.7028C54.6063 15.1615 54.0196 15.6361 53.2716 15.7948Z" fill="#CB7212"/>
<path d="M49.8335 10.4835C50.0002 8.85285 50.6828 7.42352 51.5695 6.07819C51.7282 5.83552 51.9295 5.54219 52.2882 5.62352C52.6388 5.70352 52.6668 6.03019 52.7535 6.32619C53.0015 7.17152 52.9948 8.03152 52.9802 8.89685C52.0442 9.64885 50.9828 10.1529 49.8335 10.4835Z" fill="#F8AD5C"/>
<path d="M42.4794 22.5286C40.606 22.4006 38.9967 23.2926 37.306 23.8726C38.6527 21.9072 40.654 21.1379 43.078 20.6392C42.834 21.4112 42.6567 21.9699 42.4794 22.5286Z" fill="#B1E6BA"/>
<path d="M27.0379 64.2673C26.4045 64.658 25.8579 65.2793 24.9872 65.0393C24.5005 63.5993 24.2645 62.11 24.1232 60.602C24.0472 60.3353 23.9072 60.034 24.4045 60.0726C24.9845 61.658 26.0192 62.958 27.0379 64.2673Z" fill="#FAFAFA"/>
<path d="M57.9845 82.882C55.4565 84.0007 52.9325 83.978 50.4085 82.8687C50.3485 82.4594 50.2605 82.0847 50.9379 82.3114C53.0939 83.0327 55.2645 83.0514 57.4259 82.33C58.0445 82.1234 58.1005 82.3927 57.9845 82.882Z" fill="#F8BE81"/>
<path d="M55.0255 16.8437C55.8722 16.1757 56.5788 15.6717 57.2202 15.0957C57.7522 14.617 58.0842 14.7077 58.1308 15.381C58.1748 16.0557 58.7642 16.841 58.0668 17.4037C56.9575 18.301 56.1028 17.3437 55.0255 16.8437Z" fill="#C77013"/>
<path d="M52.4285 11.2524C52.0512 12.2244 51.6525 13.1897 50.9485 13.9804C50.7325 14.2244 50.5379 14.639 50.1379 14.5164C49.7245 14.3897 49.5965 13.987 49.5819 13.5697C49.5672 13.179 49.5565 12.7884 49.5419 12.3977C50.5045 12.0164 51.4659 11.6337 52.4285 11.2524Z" fill="#F8AC5B"/>
<path d="M18.1655 103.806C17.5588 102.238 17.0642 100.609 15.7708 99.417C15.5522 99.2144 15.4508 99.025 15.6588 98.7557C15.9708 98.3544 16.1348 98.737 16.3842 98.8557C18.4215 99.8264 18.1775 101.782 18.4335 103.526C18.5348 103.802 18.4095 103.86 18.1655 103.806Z" fill="#F2F2F3"/>
<path d="M90.1662 102.678C89.9848 100.686 91.0328 99.4995 92.8728 98.8141C91.9142 100.23 90.9782 101.658 90.4302 103.285C89.9182 103.266 90.1368 102.931 90.1662 102.678Z" fill="#F3F4F5"/>
<path d="M94.3757 96.1814C94.6651 97.116 95.6691 96.8267 96.2424 97.2734C96.0144 97.3827 95.7944 97.536 95.5531 97.5947C95.0677 97.7107 94.6211 98.4387 94.0731 97.7827C93.5571 97.1654 94.0264 96.6707 94.3757 96.1814Z" fill="#C22072"/>
<path d="M22.8654 72.6646C23.5294 73.1606 24.3174 72.67 25.0107 72.934C23.8787 73.2726 22.7054 73.0966 21.556 73.21C21.3014 73.2566 21.2134 73.158 21.2987 72.9113L22.8654 72.6646Z" fill="#D2D4D7"/>
<path d="M16.8536 82.3247C17.303 81.9994 16.8603 81.3461 17.3296 81.0274C17.339 82.0821 17.347 83.1367 17.355 84.1914C16.8403 83.6621 16.8776 82.9861 16.8536 82.3247Z" fill="#FBBE7E"/>
<path d="M82.8249 69.4809C83.3356 69.6369 83.4223 70.1369 83.6636 70.5116C82.2969 70.4889 82.2849 70.4729 82.8249 69.4809Z" fill="#1B86B2"/>
<path d="M91.2319 82.845C91.3092 83.017 91.3879 83.189 91.4652 83.361C91.4812 83.7823 91.5652 84.2343 91.0025 84.3983C91.0532 83.877 90.8585 83.3183 91.2319 82.845Z" fill="#DFA365"/>
<path d="M87.0528 73.2004C87.2128 73.1138 87.3715 73.0271 87.5301 72.9391C87.9035 72.8858 88.2008 73.0004 88.4301 73.3444C87.9341 73.4791 87.4768 73.5084 87.0528 73.2004Z" fill="#707680"/>
<path d="M120.036 116.359C119.787 116.209 119.539 116.06 119.289 115.911C119.748 115.911 120.205 115.911 120.677 115.911C120.645 116.397 120.336 116.371 120.036 116.359Z" fill="#357C4C"/>
<path d="M18.1655 103.806C18.2549 103.713 18.3442 103.618 18.4335 103.526C18.6709 103.866 18.6922 104.245 18.5669 105.001C18.3682 104.412 18.2669 104.109 18.1655 103.806Z" fill="#B2B5BA"/>
<path d="M90.2025 104.08C90.1025 104.439 90.0039 104.797 89.8799 105.243C89.5492 104.764 89.6505 104.417 89.9292 104.084C90.0185 103.963 90.1092 103.955 90.2025 104.08Z" fill="#91969E"/>
<path d="M62.5684 78.3624C62.7044 78.3824 62.8391 78.4024 62.9737 78.4224C62.5951 78.7771 62.1577 78.9744 61.6271 78.9224C61.8591 78.5998 62.1711 78.4091 62.5684 78.3624Z" fill="#EBA75E"/>
<path d="M24.4051 60.0727C24.1331 60.1554 24.2331 60.4341 24.1238 60.6021C23.8851 60.2647 23.8798 59.8901 23.9504 59.4741C24.3184 59.5247 24.3838 59.7807 24.4051 60.0727Z" fill="#93989F"/>
<path d="M90.2025 104.08L89.9292 104.084C89.9599 103.608 89.8785 103.112 90.1665 102.679L90.4292 103.284C90.3545 103.549 90.2785 103.815 90.2025 104.08Z" fill="#DDDFE1"/>
<path d="M5.00467 102.988C5.04467 103.204 5.05533 103.433 5.28467 103.556C5.142 103.845 5.05667 104.176 4.74067 104.346C4.72067 103.872 4.706 103.4 5.00467 102.988Z" fill="#F6D8B7"/>
<path d="M21.299 72.9106C21.3843 73.0106 21.4696 73.1106 21.5563 73.2106C21.267 73.4266 20.8163 73.5799 20.679 73.2813C20.5523 73.0093 20.9883 72.8879 21.299 72.9106Z" fill="#656B76"/>
<path d="M83.1889 62.4452L82.8489 62.1212C82.9676 61.8879 82.9796 61.3865 83.3076 61.5585C83.5676 61.6959 83.4289 62.1665 83.1889 62.4452Z" fill="#94989F"/>
<path d="M55.7169 68.2759C54.8223 68.2639 54.0049 68.0199 53.3009 67.4545C53.0943 67.2879 52.8863 67.0665 53.0423 66.7932C53.2009 66.5159 53.4729 66.6132 53.7289 66.7119C54.4236 66.9772 55.1369 67.1465 55.8889 67.0439C56.8609 66.9105 57.5863 66.4359 57.9809 65.5079C58.0996 65.2292 58.2249 64.8852 58.6169 65.0452C58.9103 65.1639 58.8089 65.4879 58.8009 65.7345C58.7503 67.1759 57.4156 68.2732 55.7169 68.2759Z" fill="#283140"/>
<path d="M58.0359 62.0214C57.9279 62.6894 57.5812 63.216 56.8439 63.344C56.5559 63.3947 56.3732 63.1387 56.3999 62.8347C56.4639 62.1147 56.8399 61.6014 57.5385 61.4107C57.9732 61.2934 58.0105 61.6614 58.0359 62.0214Z" fill="#343B48"/>
<path d="M52.1355 61.5434C52.7862 61.7541 53.2142 62.1821 53.2702 62.9087C53.2969 63.2621 53.1302 63.5367 52.7395 63.4167C52.1222 63.2274 51.7235 62.7981 51.6382 62.1314C51.5942 61.7874 51.6955 61.5407 52.1355 61.5434Z" fill="#2D3643"/>
<path d="M101.489 61.7805C101.477 62.8631 100.837 63.2191 99.8664 62.7778C99.1277 62.4431 98.6811 61.7631 98.1051 61.2365C96.9837 60.2085 96.1197 60.0885 94.8037 60.8365C94.1984 61.1805 93.6251 61.5805 93.0131 61.9098C92.4331 62.2205 91.7651 62.5578 91.2277 61.9258C90.6731 61.2751 91.0331 60.6005 91.4544 60.0191C92.9491 57.9525 95.8771 57.2271 98.2224 58.2685C99.3384 58.7631 100.174 59.5645 100.949 60.4565C101.298 60.8605 101.52 61.3338 101.489 61.7805Z" fill="#67C4E8"/>
<path d="M43.8204 59.0109C42.6284 60.9603 41.0911 62.2843 38.6058 61.8869C38.2484 61.9243 37.9191 61.8616 37.6018 61.6763C35.9431 60.7003 34.6298 57.8389 35.0964 56.1936C35.0764 54.4216 35.3551 52.7123 36.3391 51.2029C37.2858 49.7509 38.5204 48.6656 40.3924 48.8109C42.2591 48.9563 43.3484 50.1896 44.0311 51.7896C45.0631 54.2136 44.7898 56.6296 43.8204 59.0109Z" fill="#242D3C"/>
<path d="M35.0964 56.1933C35.3217 58.6733 36.2084 60.7453 38.6044 61.888C36.8711 63.9626 33.2697 64.6653 30.4604 63.4746C30.1017 63.3226 29.7497 63.1533 29.3951 62.992C28.2631 62.1026 27.2084 61.124 27.7284 59.5026C28.3444 57.5826 29.9617 56.8413 31.7577 56.3986C32.8551 56.128 33.9817 56.2253 35.0964 56.1933Z" fill="#FAC083"/>
<path d="M69.336 61.839C66.7907 62.347 65.3 60.915 64.084 58.9803C63.224 56.867 62.868 54.699 63.6147 52.487C64.2427 50.6283 65.28 49.0883 67.4267 48.8123C69.192 48.587 70.8627 49.755 71.9094 51.8097C72.328 52.631 72.5974 53.4963 72.7254 54.4083C73.4187 56.3977 72.9974 58.239 71.992 60.007C71.4 61.0483 70.6067 61.7857 69.336 61.839Z" fill="#242D3C"/>
<path d="M69.336 61.8391C71.672 60.6564 72.9893 58.2577 72.788 55.5631C72.7587 55.1777 72.7453 54.7911 72.724 54.4071C72.868 55.1404 73.244 55.4404 74.048 55.3684C75.5467 55.2337 76.9787 55.5844 78.2907 56.3244C80.74 57.7084 80.8867 59.9044 78.6827 61.8977C75.8387 63.4844 72.9747 63.6364 70.0747 62.0364C69.8573 61.9177 69.584 61.9031 69.336 61.8391Z" fill="#FAC083"/>
<path d="M42.6206 54.2674C42.6272 55.5754 41.9059 56.6701 41.0566 56.6381C40.1632 56.6061 39.5779 55.3754 39.8179 54.0021C39.9766 53.0954 40.3046 52.1568 41.3752 52.2554C42.4499 52.3554 42.5539 53.3741 42.6206 54.2674Z" fill="#FCFCFC"/>
<path d="M65.2924 54.0728C65.3178 53.3754 65.4671 52.3914 66.4978 52.2621C67.6578 52.1167 67.9604 53.1728 68.1418 54.0608C68.3191 54.9327 68.1644 55.7914 67.4311 56.4194C67.1031 56.6994 66.7058 56.7381 66.3444 56.5114C65.5284 55.9981 65.2858 55.1941 65.2924 54.0728Z" fill="#FCFCFC"/>
</svg>
