<svg width="1076" height="865" viewBox="0 0 1076 865" fill="none" xmlns="http://www.w3.org/2000/svg">
<path d="M1057.23 315.483C1057.23 320.578 1061.36 324.707 1066.46 324.707C1071.55 324.707 1075.68 320.578 1075.68 315.483C1075.68 310.388 1071.55 306.258 1066.46 306.258C1061.36 306.258 1057.23 310.388 1057.23 315.483ZM30.8738 530.534C35.9685 530.534 40.0979 526.403 40.0979 521.308C40.0979 516.214 35.9685 512.083 30.8738 512.083C25.7792 512.083 21.6499 516.214 21.6499 521.308C21.6499 526.403 25.7792 530.534 30.8738 530.534ZM15.8258 698.902C17.2938 702.463 20.7299 704.608 24.3539 704.608C25.5272 704.608 26.7192 704.386 27.8698 703.911C32.5818 701.964 34.8219 696.571 32.8752 691.863C6.50455 627.994 26.0139 559.884 26.2125 559.199C27.6512 554.31 24.8512 549.187 19.9672 547.746C15.0712 546.328 9.94989 549.103 8.51389 553.998C7.62189 557.031 -13.0008 629.092 15.8258 698.902ZM1048.36 276.867C1049.5 280.927 1053.2 283.582 1057.23 283.582C1058.06 283.582 1058.9 283.474 1059.74 283.234C1064.64 281.846 1067.5 276.752 1066.11 271.846C1040.33 180.651 925.427 139.403 920.55 137.698C915.736 136.023 910.483 138.539 908.797 143.343C907.106 148.148 909.635 153.415 914.439 155.102C915.543 155.492 1025.2 194.956 1048.36 276.867ZM10.4032 246.17C4.25388 135.474 93.2658 19.3469 229.746 3.76556C359.916 -11.0971 457.288 16.5776 582.332 112.924C707.378 209.271 757.15 165.232 865.223 186.722C973.298 208.211 1078.42 350.716 1021.02 492.162C963.62 633.607 807.826 656.156 807.826 656.156C807.826 656.156 629.483 711.504 563.883 777.102C498.287 842.699 332.242 918.545 170.298 809.9C8.35384 701.254 76.0005 561.858 96.5005 475.762C116.999 389.664 16.5525 356.866 10.4032 246.17Z" fill="#17A6DD"/>
</svg>
