<svg width="782" height="177" viewBox="0 0 782 177" fill="none" xmlns="http://www.w3.org/2000/svg">
<path d="M49.026 41.343C50.4847 42.3883 51.9527 43.399 53.4313 44.3763C126.738 92.8243 221.174 93.7817 308.535 84.3243C391.686 75.3243 476.069 64.3257 559.651 74.4243C601.157 79.439 641.931 89.8483 680.281 106.604C717.886 123.035 749.889 149.156 787.953 164.483C815.167 175.44 845.625 180.522 874.046 173.244C911.346 163.695 941.513 127.75 947.871 90.1697C955.885 42.799 929.357 -7.73566 886.83 -30.085C855.045 -46.7903 817.458 -48.485 781.698 -45.2397C745.938 -41.9957 710.589 -34.1957 674.693 -33.2637C527.37 -29.437 398.474 -139.578 251.562 -151.225C202.477 -155.117 152.651 -147.154 106.901 -129.08C72.2473 -115.388 17.798 -93.5183 4.23134 -55.5543C-8.66066 -19.481 17.4927 18.739 49.026 41.343Z" fill="#D1EBEC"/>
<path d="M100.397 41.048C101.856 42.0934 103.324 43.104 104.802 44.0814C178.109 92.5294 272.545 93.4854 359.906 84.0294C443.057 75.0294 527.44 64.0307 611.022 74.1294C652.528 79.144 693.302 89.5533 731.652 106.309C769.257 122.74 801.26 148.863 839.324 164.188C866.538 175.145 896.996 180.227 925.417 172.951C962.717 163.4 992.884 127.456 999.242 89.8733C1007.26 42.504 980.728 -8.03066 938.201 -30.38C906.416 -47.0853 868.829 -48.78 833.069 -45.5347C797.309 -42.2907 761.96 -34.4907 726.064 -33.5573C578.741 -29.732 449.845 -139.873 302.933 -151.52C253.848 -155.412 204.022 -147.449 158.272 -129.373C123.618 -115.683 69.1691 -93.8146 55.6024 -55.8493C42.7104 -19.776 68.8638 18.444 100.397 41.048Z" fill="#FF9800"/>
<path d="M402.985 -0.00264155L420.537 10.1307L376.764 35.4027V-0.00264155H362.698V59.7627L448.668 10.1307L431.116 -0.00264155H402.985Z" fill="white"/>
</svg>
