<svg width="258" height="258" viewBox="0 0 258 258" fill="none" xmlns="http://www.w3.org/2000/svg">
<g filter="url(#filter0_d_205_26)">
<path d="M224.325 11.5596C220.154 9.23883 215.567 7.76298 210.825 7.21643C206.084 6.66988 201.281 7.06334 196.692 8.37432C192.103 9.6853 187.817 11.8881 184.079 14.8567C180.342 17.8253 177.227 21.5015 174.911 25.6751L107.458 147.065L68.8542 108.461C65.5025 104.99 61.4934 102.222 57.0606 100.318C52.6277 98.414 47.8601 97.4117 43.0358 97.3698C38.2115 97.3279 33.4271 98.2472 28.9619 100.074C24.4966 101.901 20.4399 104.599 17.0285 108.01C13.6171 111.422 10.9192 115.478 9.09234 119.944C7.26546 124.409 6.34617 129.193 6.38809 134.017C6.43001 138.842 7.43231 143.609 9.33651 148.042C11.2407 152.475 14.0087 156.484 17.4789 159.836L90.1455 232.503C97.0125 239.388 106.278 243.166 115.833 243.166L120.865 242.803C126.434 242.024 131.747 239.963 136.384 236.782C141.021 233.602 144.856 229.388 147.589 224.473L238.422 60.9729C240.741 56.8028 242.216 52.2167 242.762 47.4765C243.309 42.7364 242.917 37.9349 241.608 33.3464C240.298 28.7579 238.098 24.4722 235.133 20.734C232.168 16.9958 228.495 13.8783 224.325 11.5596V11.5596Z" fill="#70CE68"/>
</g>
<defs>
<filter id="filter0_d_205_26" x="0.386719" y="0.977539" width="256.615" height="256.188" filterUnits="userSpaceOnUse" color-interpolation-filters="sRGB">
<feFlood flood-opacity="0" result="BackgroundImageFix"/>
<feColorMatrix in="SourceAlpha" type="matrix" values="0 0 0 0 0 0 0 0 0 0 0 0 0 0 0 0 0 0 127 0" result="hardAlpha"/>
<feOffset dx="4" dy="4"/>
<feGaussianBlur stdDeviation="5"/>
<feComposite in2="hardAlpha" operator="out"/>
<feColorMatrix type="matrix" values="0 0 0 0 0 0 0 0 0 0 0 0 0 0 0 0 0 0 0.25 0"/>
<feBlend mode="normal" in2="BackgroundImageFix" result="effect1_dropShadow_205_26"/>
<feBlend mode="normal" in="SourceGraphic" in2="effect1_dropShadow_205_26" result="shape"/>
</filter>
</defs>
</svg>
